<?xml version="1.0" encoding="utf-8"?>
<svg clip-rule="evenodd" fill-rule="evenodd" stroke-linejoin="round" stroke-miterlimit="1.414" viewBox="0 0 24 24" xmlns="http://www.w3.org/2000/svg">
  <path d="M10 4H4c-1.11 0-2 .89-2 2v12c0 1.097.903 2 2 2h16c1.097 0 2-.903 2-2V8a2 2 0 0 0-2-2h-8l-2-2z" fill="#0277bd" fill-rule="nonzero"/>
  <path d="M 7.881 11.373 C 8.453 9.072 9.886 7.923 12.177 7.923 C 15.614 7.923 16.045 10.51 17.763 10.942 C 18.909 11.229 19.911 10.797 20.771 9.648 C 20.199 11.947 18.766 13.098 16.474 13.098 C 13.037 13.098 12.608 10.51 10.889 10.079 C 9.742 9.791 8.74 10.223 7.88 11.373 L 7.881 11.373 Z M 3.583 16.547 C 4.156 14.248 5.588 13.098 7.879 13.098 C 11.317 13.098 11.746 15.685 13.466 16.116 C 14.611 16.405 15.614 15.973 16.473 14.823 C 15.9 17.123 14.468 18.272 12.177 18.272 C 8.739 18.272 8.31 15.685 6.59 15.254 C 5.445 14.966 4.442 15.398 3.583 16.547 Z" style="fill: rgb(77, 182, 172);"/>
</svg>