<?xml version="1.0" encoding="utf-8"?>
<svg clip-rule="evenodd" fill-rule="evenodd" stroke-linejoin="round" stroke-miterlimit="1.414" viewBox="0 0 24 24" xmlns="http://www.w3.org/2000/svg">
  <path d="M19 20H4a2 2 0 0 1-2-2V6c0-1.11.89-2 2-2h6l2 2h7c1.097 0 2 .903 2 2H4v10l2.14-8h17.07l-2.28 8.5c-.23.87-1.01 1.5-1.93 1.5z" fill="#0277bd" fill-rule="nonzero"/>
  <path d="M 10.815 13.64 C 11.181 12.204 12.097 11.487 13.561 11.487 C 15.758 11.487 16.033 13.102 17.131 13.371 C 17.864 13.55 18.504 13.281 19.053 12.563 C 18.688 13.998 17.772 14.716 16.307 14.716 C 14.111 14.716 13.836 13.102 12.738 12.833 C 12.005 12.652 11.364 12.922 10.814 13.64 L 10.815 13.64 Z M 8.068 16.869 C 8.434 15.434 9.35 14.716 10.814 14.716 C 13.011 14.716 13.285 16.331 14.385 16.6 C 15.117 16.78 15.758 16.51 16.307 15.793 C 15.94 17.228 15.025 17.945 13.561 17.945 C 11.364 17.945 11.089 16.331 9.99 16.062 C 9.258 15.882 8.617 16.152 8.068 16.869 Z" style="fill: rgb(77, 182, 172);"/>
</svg>